<svg width="26" height="25" viewBox="0 0 26 25" fill="none" xmlns="http://www.w3.org/2000/svg">
<path fill-rule="evenodd" clip-rule="evenodd" d="M0.333496 12.5C0.333496 5.59644 5.92994 0 12.8335 0C19.7371 0 25.3335 5.59644 25.3335 12.5C25.3335 19.4036 19.7371 25 12.8335 25C5.92994 25 0.333496 19.4036 0.333496 12.5ZM12.8335 1.66667C6.85041 1.66667 2.00016 6.51692 2.00016 12.5C2.00016 18.2027 6.40646 22.8762 12.0002 23.3018V15H8.66683V13.3333H12.0002V10.8333C12.0002 8.53215 13.8656 6.66667 16.1668 6.66667H17.0002V8.33333H16.1668C14.7861 8.33333 13.6668 9.45262 13.6668 10.8333V13.3333H17.0002V15H13.6668V23.3018C19.2605 22.8762 23.6668 18.2027 23.6668 12.5C23.6668 6.51692 18.8166 1.66667 12.8335 1.66667Z" fill="#94785D"/>
</svg>
