<svg width="26" height="25" viewBox="0 0 26 25" fill="none" xmlns="http://www.w3.org/2000/svg">
<path fill-rule="evenodd" clip-rule="evenodd" d="M0.666504 7.5C0.666504 3.35786 4.02437 0 8.1665 0H18.1665C22.3086 0 25.6665 3.35786 25.6665 7.5V17.5C25.6665 21.6421 22.3086 25 18.1665 25H8.1665C4.02437 25 0.666504 21.6421 0.666504 17.5V7.5ZM8.1665 1.66667C4.94484 1.66667 2.33317 4.27834 2.33317 7.5V17.5C2.33317 20.7217 4.94484 23.3333 8.1665 23.3333H18.1665C21.3882 23.3333 23.9998 20.7217 23.9998 17.5V7.5C23.9998 4.27834 21.3882 1.66667 18.1665 1.66667H8.1665ZM20.6665 6.66667H18.9998V5H20.6665V6.66667ZM7.33317 12.5C7.33317 9.27834 9.94484 6.66667 13.1665 6.66667C16.3882 6.66667 18.9998 9.27834 18.9998 12.5C18.9998 15.7217 16.3882 18.3333 13.1665 18.3333C9.94484 18.3333 7.33317 15.7217 7.33317 12.5ZM13.1665 8.33333C10.8653 8.33333 8.99984 10.1988 8.99984 12.5C8.99984 14.8012 10.8653 16.6667 13.1665 16.6667C15.4677 16.6667 17.3332 14.8012 17.3332 12.5C17.3332 10.1988 15.4677 8.33333 13.1665 8.33333Z" fill="#94785D"/>
</svg>
