<svg width="25" height="25" viewBox="0 0 25 25" fill="none" xmlns="http://www.w3.org/2000/svg">
<path fill-rule="evenodd" clip-rule="evenodd" d="M0 2.5C0 1.11929 1.11929 0 2.5 0H22.5C23.8807 0 25 1.11929 25 2.5V22.5C25 23.8807 23.8807 25 22.5 25H2.5C1.11929 25 0 23.8807 0 22.5V2.5ZM2.5 1.66667C2.03976 1.66667 1.66667 2.03976 1.66667 2.5V22.5C1.66667 22.9602 2.03976 23.3333 2.5 23.3333H22.5C22.9602 23.3333 23.3333 22.9602 23.3333 22.5V2.5C23.3333 2.03976 22.9602 1.66667 22.5 1.66667H2.5ZM8.33333 8.33333H6.66667V6.66667H8.33333V8.33333ZM6.66667 18.3333V10H8.33333V18.3333H6.66667ZM14.1667 11.6667C12.786 11.6667 11.6667 12.786 11.6667 14.1667V18.3333H10V10H11.6667V10.833C12.3631 10.31 13.2287 10 14.1667 10C16.4679 10 18.3333 11.8655 18.3333 14.1667V18.3333H16.6667V14.1667C16.6667 12.786 15.5474 11.6667 14.1667 11.6667Z" fill="#94785D"/>
</svg>
