<svg width="25" height="25" viewBox="0 0 25 25" fill="none" xmlns="http://www.w3.org/2000/svg">
<path fill-rule="evenodd" clip-rule="evenodd" d="M24.4033 1.71261C24.7199 1.82219 24.9401 2.1107 24.9622 2.44499C25.0537 3.82508 24.9887 4.87918 24.6663 5.78825C24.3773 6.60296 23.9057 7.23316 23.3 7.84878V8.64594C23.3 16.7564 16.7349 23.3335 8.63383 23.3335L8.55307 23.3335C5.91441 23.3336 3.07749 23.3338 0.370654 21.5265C0.0653425 21.3226 -0.0706013 20.943 0.0359075 20.5917C0.142416 20.2404 0.466285 20.0001 0.833398 20.0001C3.65631 20.0001 6.07798 18.7938 7.51681 17.7742C4.35092 16.4399 2.1172 14.426 1.0065 11.8978C-0.261429 9.01169 0.00736356 5.62238 1.75191 2.1279C1.90003 1.8312 2.20997 1.65056 2.54113 1.66792C2.87229 1.68529 3.16164 1.89735 3.27792 2.20791C3.9973 4.12922 6.66331 7.91635 11.6487 8.30162V7.56861C11.6487 4.31033 14.2863 1.66678 17.5427 1.66678C19.06 1.66678 20.4407 2.25534 21.4683 3.21471C22.2072 3.01689 22.9352 2.58304 23.5112 1.94278C23.7353 1.69371 24.0867 1.60304 24.4033 1.71261ZM11.6487 9.97301V10.0001L13.3154 10.0001V7.56861C13.3154 5.22838 15.2093 3.33345 17.5427 3.33345C18.7451 3.33345 19.8256 3.85211 20.5754 4.68132L20.8756 5.01339L21.3183 4.94635C22.0029 4.84267 22.6785 4.60081 23.3013 4.23779C23.2637 4.63318 23.194 4.95348 23.0955 5.23104C22.9167 5.73495 22.6212 6.16122 22.1164 6.67523C21.8311 6.80753 21.6333 7.09647 21.6333 7.43162V8.64594C21.6333 15.8384 15.812 21.6668 8.63383 21.6668C6.92417 21.6668 5.35442 21.6593 3.86283 21.278C6.68377 20.5566 8.83253 19.0014 9.74359 18.0889C9.94752 17.8847 10.0312 17.5894 9.96488 17.3085C9.89852 17.0276 9.69154 16.8011 9.41776 16.7097C5.82596 15.5106 3.5555 13.5563 2.5324 11.2274C1.6856 9.2999 1.64311 7.00139 2.55876 4.46169C4.01321 6.79239 6.96198 9.66497 11.6487 9.97301Z" fill="#94785D"/>
</svg>
